<svg width="205" height="256" viewBox="0 0 205 256" fill="none" xmlns="http://www.w3.org/2000/svg">
<path d="M154.953 72.0391C154.697 72.0394 154.448 71.9629 154.236 71.8195C154.024 71.6761 153.861 71.4725 153.766 71.235L145.508 50.4427C144.669 48.517 143.443 46.7845 141.906 45.3529C140.368 43.9212 138.553 42.821 136.573 42.1207C127.341 39.3383 117.495 39.3383 108.263 42.1207C106.254 42.7502 104.417 43.8308 102.89 45.2799C101.364 46.729 100.189 48.508 99.4558 50.481L91.1593 71.235C91.0324 71.5498 90.7856 71.8013 90.4732 71.9342C90.1608 72.067 89.8085 72.0703 89.4936 71.9434C89.1788 71.8165 88.9273 71.5696 88.7945 71.2573C88.6616 70.9449 88.6583 70.5925 88.7853 70.2777L97.1073 49.4854C97.9955 47.1655 99.3956 45.0759 101.203 43.372C103.011 41.6682 105.18 40.3941 107.548 39.6445C117.279 36.7086 127.659 36.7086 137.39 39.6445C139.704 40.4826 141.822 41.7859 143.614 43.474C145.405 45.1622 146.831 47.1993 147.805 49.4599L156.14 70.2777C156.202 70.4336 156.233 70.6002 156.231 70.768C156.228 70.9358 156.193 71.1015 156.127 71.2556C156.06 71.4097 155.964 71.5492 155.844 71.6662C155.723 71.7831 155.581 71.8751 155.425 71.937C155.276 72.0008 155.115 72.0355 154.953 72.0391Z" fill="white"/>
<path d="M122.456 28.6293C119.225 28.6259 116.126 27.3406 113.841 25.0553C111.556 22.7701 110.27 19.6716 110.267 16.4398V13.5807C110.326 10.3663 111.629 7.29997 113.902 5.02665C116.176 2.75333 119.242 1.45017 122.456 1.39124C125.69 1.39123 128.792 2.67507 131.08 4.96067C133.368 7.24627 134.655 10.3467 134.659 13.5807V16.6951C134.582 19.8825 133.263 22.914 130.984 25.1433C128.705 27.3727 125.645 28.6235 122.456 28.6293ZM122.456 3.944C119.91 4.0029 117.486 5.04404 115.689 6.84964C113.893 8.65523 112.865 11.0854 112.82 13.6318V16.4398C112.871 18.9419 113.893 21.326 115.669 23.089C117.445 24.8521 119.837 25.8561 122.339 25.8892C124.842 25.9224 127.259 24.982 129.081 23.2666C130.903 21.5512 131.988 19.1949 132.106 16.6951V13.5807C132.102 11.0237 131.084 8.57262 129.275 6.76575C127.466 4.95889 125.013 3.944 122.456 3.944Z" fill="white"/>
<path d="M111.798 158.578C111.545 158.576 111.298 158.498 111.089 158.355C110.88 158.212 110.718 158.009 110.624 157.774L102.302 136.982C101.471 135.059 100.257 133.326 98.7344 131.889C97.2114 130.451 95.4113 129.339 93.444 128.621C84.2134 125.832 74.3645 125.832 65.1339 128.621C63.1272 129.254 61.2912 130.336 59.7651 131.785C58.2391 133.233 57.0632 135.011 56.3268 136.982L48.0175 157.761C47.8923 158.076 47.6471 158.328 47.3359 158.462C47.0248 158.596 46.6731 158.601 46.3583 158.476C46.0434 158.351 45.7913 158.105 45.6572 157.794C45.5232 157.483 45.5182 157.131 45.6435 156.817L53.9655 136.024C54.8537 133.704 56.2538 131.615 58.0615 129.911C59.8692 128.207 62.038 126.933 64.4063 126.183C74.1351 123.234 84.5194 123.234 94.2482 126.183C96.5632 127.02 98.682 128.323 100.473 130.011C102.265 131.699 103.691 133.737 104.663 135.999L112.985 156.829C113.112 157.142 113.109 157.493 112.977 157.804C112.846 158.115 112.596 158.361 112.283 158.489C112.129 158.55 111.964 158.58 111.798 158.578Z" fill="#E95420"/>
<path d="M79.3145 115.181C76.0837 115.174 72.9872 113.888 70.7027 111.603C68.4182 109.319 67.1317 106.222 67.125 102.991V99.8643C67.125 96.6314 68.4092 93.531 70.6952 91.245C72.9812 88.959 76.0816 87.6748 79.3145 87.6748C82.5473 87.6748 85.6477 88.959 87.9337 91.245C90.2197 93.531 91.5039 96.6314 91.5039 99.8643V102.991C91.4838 106.218 90.1932 109.307 87.9115 111.588C85.6299 113.87 82.5411 115.161 79.3145 115.181ZM79.3145 90.2276C76.7597 90.2309 74.3105 91.2473 72.504 93.0538C70.6975 94.8603 69.6811 97.3095 69.6778 99.8643V102.991C69.6811 105.546 70.6975 107.995 72.504 109.802C74.3105 111.608 76.7597 112.625 79.3145 112.628C81.8742 112.601 84.3207 111.569 86.1261 109.754C87.9314 107.939 88.9507 105.487 88.9639 102.928V99.8643C88.9605 97.3073 87.9424 94.8562 86.1332 93.0493C84.3239 91.2424 81.8715 90.2276 79.3145 90.2276Z" fill="#E95420"/>
<path d="M198.35 158.578C198.094 158.578 197.845 158.502 197.633 158.358C197.421 158.215 197.258 158.011 197.163 157.774L188.905 136.982C188.074 135.059 186.86 133.326 185.337 131.889C183.814 130.451 182.014 129.339 180.047 128.621C170.812 125.832 160.959 125.832 151.724 128.621C149.719 129.255 147.885 130.337 146.361 131.786C144.837 133.235 143.664 135.011 142.929 136.982L134.607 157.761C134.556 157.93 134.47 158.087 134.355 158.222C134.24 158.356 134.098 158.465 133.939 158.542C133.779 158.618 133.606 158.661 133.429 158.667C133.252 158.673 133.076 158.642 132.912 158.576C132.747 158.511 132.599 158.411 132.475 158.285C132.351 158.159 132.255 158.008 132.192 157.843C132.129 157.677 132.102 157.501 132.111 157.324C132.12 157.147 132.166 156.974 132.246 156.817L140.555 136.024C141.444 133.704 142.844 131.615 144.651 129.911C146.459 128.207 148.628 126.933 150.996 126.183C160.725 123.234 171.109 123.234 180.838 126.183C183.152 127.019 185.27 128.32 187.061 130.006C188.853 131.692 190.279 133.727 191.253 135.986L199.588 156.817C199.65 156.972 199.681 157.139 199.679 157.307C199.677 157.475 199.641 157.64 199.575 157.794C199.508 157.949 199.412 158.088 199.292 158.205C199.172 158.322 199.029 158.414 198.873 158.476C198.708 158.546 198.53 158.581 198.35 158.578Z" fill="white"/>
<path d="M165.93 115.181C162.698 115.177 159.6 113.892 157.314 111.607C155.029 109.322 153.744 106.223 153.74 102.991V99.8643C153.74 96.6314 155.025 93.531 157.311 91.245C159.597 88.959 162.697 87.6748 165.93 87.6748C169.163 87.6748 172.263 88.959 174.549 91.245C176.835 93.531 178.119 96.6314 178.119 99.8643V102.991C178.136 104.597 177.833 106.19 177.226 107.676C176.62 109.163 175.723 110.513 174.587 111.649C173.452 112.784 172.101 113.681 170.615 114.288C169.128 114.894 167.535 115.198 165.93 115.181ZM165.93 90.2276C163.375 90.2309 160.926 91.2473 159.12 93.0538C157.313 94.8603 156.297 97.3095 156.293 99.8643V102.991C156.297 105.546 157.313 107.995 159.12 109.802C160.926 111.608 163.375 112.625 165.93 112.628C167.199 112.642 168.459 112.402 169.634 111.922C170.809 111.443 171.877 110.734 172.775 109.836C173.672 108.938 174.381 107.871 174.861 106.695C175.34 105.52 175.58 104.261 175.567 102.991V99.8643C175.563 97.3095 174.547 94.8603 172.74 93.0538C170.934 91.2473 168.485 90.2309 165.93 90.2276Z" fill="white"/>
<path d="M137.53 214.841H95.9458C95.438 214.841 94.9511 214.639 94.592 214.28C94.233 213.921 94.0312 213.434 94.0312 212.926C94.0312 212.419 94.233 211.932 94.592 211.573C94.9511 211.213 95.438 211.012 95.9458 211.012H137.53C140.4 211.008 143.151 209.867 145.18 207.838C147.209 205.809 148.351 203.058 148.354 200.188C148.354 199.68 148.556 199.193 148.915 198.834C149.274 198.475 149.761 198.273 150.269 198.273C150.777 198.273 151.263 198.475 151.623 198.834C151.982 199.193 152.183 199.68 152.183 200.188C152.18 204.073 150.635 207.798 147.888 210.545C145.141 213.293 141.416 214.838 137.53 214.841Z" fill="white"/>
<path d="M37.2193 254.077H4.72262C4.21484 254.077 3.72786 253.875 3.36881 253.516C3.00976 253.157 2.80804 252.67 2.80804 252.162V173.933C2.81139 173.426 3.01418 172.941 3.37251 172.583C3.73084 172.224 4.21588 172.022 4.72262 172.018H37.2193C37.7271 172.018 38.2141 172.22 38.5732 172.579C38.9322 172.938 39.1339 173.425 39.1339 173.933V252.162C39.1339 252.67 38.9322 253.157 38.5732 253.516C38.2141 253.875 37.7271 254.077 37.2193 254.077ZM6.58614 250.248H35.3048V175.847H6.6372L6.58614 250.248Z" fill="white"/>
<path d="M110.445 254.102C96.2551 254.116 82.395 249.821 70.6989 241.785L52.7402 229.647H37.2193C36.7116 229.647 36.2246 229.445 35.8655 229.086C35.5065 228.727 35.3048 228.24 35.3048 227.732C35.3048 227.225 35.5065 226.738 35.8655 226.379C36.2246 226.02 36.7116 225.818 37.2193 225.818H53.3273C53.7099 225.818 54.0836 225.934 54.3995 226.15L72.856 238.684C85.7633 247.485 101.342 251.495 116.895 250.02C132.448 248.544 146.994 241.676 158.016 230.604L194.661 193.959C195.778 192.858 196.635 191.522 197.171 190.049C197.706 188.575 197.907 187 197.757 185.439C197.608 183.878 197.113 182.37 196.308 181.025C195.503 179.679 194.409 178.53 193.104 177.66C188.892 174.711 182.893 175.49 178.911 179.511L148.507 209.927C148.151 210.215 147.704 210.365 147.246 210.351C146.788 210.338 146.351 210.16 146.013 209.851C145.675 209.543 145.459 209.123 145.403 208.668C145.348 208.214 145.458 207.755 145.712 207.374C147.376 205.494 148.314 203.081 148.354 200.571C148.245 197.647 146.999 194.88 144.883 192.859C142.767 190.838 139.946 189.722 137.02 189.747H100.834C100.569 189.748 100.306 189.694 100.062 189.589C99.8181 189.483 99.5987 189.329 99.4175 189.135C95.6015 184.977 90.9614 181.66 85.7928 179.394C80.6242 177.128 75.0403 175.964 69.397 175.975H32.0117C31.5039 175.975 31.0169 175.773 30.6579 175.414C30.2988 175.055 30.0971 174.568 30.0971 174.06C30.0971 173.553 30.2988 173.066 30.6579 172.707C31.0169 172.348 31.5039 172.146 32.0117 172.146H69.448C75.4712 172.122 81.4368 173.318 86.9847 175.663C92.5327 178.009 97.5479 181.454 101.728 185.79H137.02C145.24 185.79 152.183 192.504 152.183 200.443V200.762L176.205 176.741C181.54 171.406 189.569 170.435 195.287 174.443C197.046 175.633 198.52 177.198 199.603 179.025C200.686 180.853 201.351 182.897 201.55 185.012C201.749 187.127 201.477 189.259 200.754 191.256C200.03 193.254 198.874 195.066 197.367 196.563L160.722 233.208C154.126 239.823 146.29 245.074 137.663 248.659C129.036 252.244 119.788 254.094 110.445 254.102Z" fill="white"/>
</svg>
